<?xml version="1.0" encoding="utf-8"?>
<!-- Generator: Adobe Illustrator 19.2.1, SVG Export Plug-In . SVG Version: 6.00 Build 0)  -->
<svg version="1.1" id="Layer_1" xmlns="http://www.w3.org/2000/svg" xmlns:xlink="http://www.w3.org/1999/xlink" x="0px" y="0px"
	 viewBox="0 0 24.1 27" style="enable-background:new 0 0 24.1 27;" xml:space="preserve">
<style type="text/css">
	.st0{fill:#9C9B9B;}
</style>
<path class="st0" d="M16.5,14.8c2.2-1.4,3.6-3.9,3.6-6.7C20.1,3.7,16.5,0,12,0S4,3.7,4,8.1c0,2.8,1.4,5.3,3.6,6.7
	c-4.4,1.8-7.5,6.1-7.5,11.1c0,0.6,0.5,1.1,1.1,1.1s1.1-0.5,1.1-1.1c0-5.4,4.4-9.8,9.8-9.8s9.8,4.4,9.8,9.8c0,0.6,0.5,1.1,1.1,1.1
	c0.6,0,1.1-0.5,1.1-1.1C24,20.9,20.9,16.6,16.5,14.8z M12,13.9c-3.2,0-5.9-2.6-5.9-5.9S8.8,2.2,12,2.2c3.2,0,5.9,2.6,5.9,5.9
	S15.2,13.9,12,13.9z"/>
</svg>
